<?xml version="1.0" encoding="UTF-8"?> <svg xmlns="http://www.w3.org/2000/svg" id="Layer_2" viewBox="0 0 678.55 284.73"><defs><style> .cls-1 { fill: #fff; } </style></defs><g><path class="cls-1" d="M167.24,210.09c-1.87-11.36-6.64-20.96-18.61-25.45-12.86-4.82-25.96-5.52-38.58-.83-9.47,3.52-17.84,9.56-21.05,20.28-.82,2.74-.33,4.99,1.93,6.64,4.87,3.57,13.08,2.04,16.2-3.18,6.81-11.41,22.58-14.75,34.61-7.52,4.86,2.91,7.61,9.9,6.27,15.53-1.05,4.41-4.72,6.83-9.68,7.9-11.18,2.39-22.65,3-33.68,6.4-13.99,4.3-25.86,20.2-17.18,37.58,5.39,10.82,19.26,18.42,32.66,16.76,7.25-.9,14.47-2.32,20.02-8.05,3.38-3.49,6.05-3.12,9.6.4.89.88,1.67,1.93,2.68,2.63,3.8,2.61,7.91,3.27,12.18,1.29,3.68-1.71,4.23-5,4.35-8.68.28-8.05-.52-16.05-.9-24.07-.26-5.55,1.69-10.98.71-16.38.86-7.29-.38-14.34-1.52-21.25h0ZM148.37,247.09c-2.12,14.71-11.36,22.44-26.78,22.64-10.17.53-19.38-10.98-16.02-20.46,2.05-5.8,7.22-8.31,12.28-9.71,7.47-2.07,15.14-4.25,23.14-2.97,5.81.92,8.27,4.46,7.39,10.5h0Z"></path><path class="cls-1" d="M489.49,218.49c-.62-14.81-6.05-26.4-19.76-32.96-8.89-4.25-18.38-5.6-28.31-4.17-13.42,1.93-23.63,8.36-30.16,20.27-2.79,5.1-.95,8.7,4.77,10.17,6.97,1.78,8.8,1.21,13.53-5.54,4.59-6.54,10.45-10.18,18.37-9.52,7.25-.53,12.97,2.24,17.82,7.02,6.56,6.47,3.89,16.96-4.94,19.59-5.19,1.54-10.69,1.18-15.93,2.34-9.48,2.1-19.29,2.56-27.9,8.35-15.2,10.23-14.36,32.55-1.88,42.86,8.55,7.07,19.78,8.22,30.82,6.93,6.54-.77,11.55-5.22,17.16-8.17,3.29-1.73,6.18-1.63,8.34,1.71,1.77,2.74,4.63,3.58,7.44,4.1,7.1,1.31,9.77-1.49,10.69-8.44.79-6.01.2-11.84-.19-17.75-.81-12.26.66-24.49.15-36.77ZM469.54,245.99c-.72,3.25-1.57,6.42-2.77,9.51-3.91,10.07-12.54,12.86-21.32,14.31-5.4-.24-9.79-1.31-13.75-3.82-9.87-6.24-6.02-19.42.98-23.73,4.28-2.63,8.7-4.66,14.02-4.3,4.31.3,8.38-1.47,12.54-2.43,7.06-1.64,11.88,3.32,10.31,10.45h0Z"></path><path class="cls-1" d="M385.75,224.08c0-3.07,0-6.13,0-9.19.03-7.18-2.57-13.81-6.28-19.49-9.62-14.71-29.2-17.49-42.99-10.71-3.35,1.65-6.47,3.79-9.79,5.49-2.03,1.05-4.79,1.79-6.03-.56-3.33-6.33-8.78-6.05-14.59-5.59-3.82.3-5.49,2.2-6.14,5.94-1.26,7.31.22,14.61-.32,21.95-.64,8.76.51,17.69.19,26.46-.45,12.47-.1,24.88.22,37.32.06,2.32.84,4.09,3.13,4.87,3.49,1.19,7.14,1.43,10.71.79,3.53-.64,5.59-2.8,5.55-6.67-.04-4.82-1.04-9.65,0-14.44.77-3.56,1.16-7.18.7-10.74-1.36-10.47-1.13-20.8.69-31.24,2.29-13.11,12.74-21.36,25.43-19.47,13.96,2.09,21.05,14.74,19.65,26.79-.81,7.07-.47,14.33.04,21.46.27,3.75.93,7.62.18,11.17-1.34,6.33.54,12.43.31,18.63-.06,1.57.97,2.82,2.56,3.49,4.15,1.75,8.42,1.66,12.65.66,2.25-.53,3.53-2.06,4.25-4.57.9-3.17-.23-6.05-.22-9.07.07-14.43.97-28.87.07-43.3l.02.03Z"></path><path class="cls-1" d="M275.13,211.59c-.23-3.03-1.1-6.05-.37-9.06,1.1-4.52.48-9.07.33-13.59-.08-2.47-1.54-4.59-4.33-4.8-2.91-.21-5.87-.25-8.77.03-2.29.23-4.17,1.48-4.92,3.89-1.37,4.38-2.29,8.89-1.84,13.45.9,9.06.91,18.14.5,27.21-.11,2.46-.85,4.89-.43,7.41,1.78,10.34-.93,19.07-8.94,26.19-8.37,7.44-28.01,5.37-32.88-5.31-2.7-5.91-4.19-11.67-3.92-18.24.33-8.33-.54-16.71-.6-25.06-.06-7.7.99-15.37.04-23.12-.64-5.28-1.34-6.49-6.82-6.52h-2.09v.02c-1.53,0-3.07-.11-4.6.03-2.2.19-4.46,1.04-4.63,3.42-.42,6.16-2.39,12.11-1.67,18.47.82,7.28,1.68,14.77.81,21.97-1.47,12.06-.22,23.38,3.37,35.01,3.04,9.87,9.97,15.32,18.3,18.36,11.62,4.23,23.74,4.05,34.7-3.22,3.83-2.54,7.37-2.78,10.94.42,3.64,3.27,7.94,3.43,12.5,2.61,3.11-.55,4.35-2.2,4.72-5.31,1.21-9.99.98-19.99.62-30-.08-2.34-.95-4.6-.68-7,1.02-9.06,1.29-18.16.62-27.25h.03Z"></path><path class="cls-1" d="M555.86,225.61c-4.06-.8-8.08-1.83-12.08-2.91-4.92-1.33-10.2-2.19-13.83-6.16-3.22-3.53-3.3-7.96-1.53-12.13,2.32-5.5,7.08-8.01,12.79-8.54,8.62-.8,15.38,2.64,20.23,9.72,2.13,3.1,4.9,3.74,8.27,2.75,1.86-.54,3.68-1.21,5.54-1.78,3.69-1.13,4.3-3.83,3.02-6.89-1.71-4.12-4.01-8.05-7.84-10.54-14.09-9.14-28.95-11.59-44.47-3.86-15.58,7.76-23.2,24.96-11.72,42.04,2.09,3.1,4.15,6.44,7.86,7.67,6.01,2,11.88,4.47,18.32,5.16,4.91.53,9.89,1.15,14.23,4.04,5.81,3.88,8.94,10.91,6.88,15.97-2.5,6.11-10.84,10.21-17.51,9.3-8.33-1.15-14.11-5.99-19.45-11.83-1.17-1.28-2.16-2.87-4.2-3.19-3.89-.6-10.54,1.88-12.06,5.22-1.75,3.82.52,6.83,2.98,9.61.74.82,1.2,1.93,2.04,2.62,14.47,11.8,30.44,16.41,48.56,9.56,12.24-4.63,19.47-14.64,19.45-27.51-1.26-4.3-.38-10.5-4.4-14.98-5.7-6.36-12.29-11.6-21.06-13.32h0Z"></path><path class="cls-1" d="M47.87,225.65c-7.08-1.82-14.46-2.46-21.15-5.81-4.4-2.2-7.23-5.53-6.87-10.4.4-5.38,2.96-10.08,8.31-12,7.86-2.82,15.48-2.55,21.96,3.73,2.07,2,4.21,3.94,6.46,5.74,2.6,2.09,10.37,1.31,12.86-1.16,2.09-2.06,2-7.11-.62-9.99-8.28-9.12-18.7-14-30-15.08-8.56.23-15.86,1.55-22.34,5.8-13.2,8.66-17.41,19.83-13.58,34.54,2.13,8.16,16.97,17.95,26.9,18.31,7.44.28,14.16,2.86,19.98,7.29,6.24,4.74,6.88,14.92-.67,19.6-10.25,6.36-24.2,3.61-30.81-6.57-3.7-5.7-8.07-6.78-14.37-3.55-3.89,2-4.71,4.48-3.12,8.59,1.53,3.96,4.75,6.31,7.77,8.99,11.44,10.18,24.66,13.11,39.3,9.67,9.45-2.22,17.7-6.63,22.44-15.69,4.1-7.82,5.59-15.7,1.23-24.16-5.08-9.88-13.28-15.17-23.69-17.85h0Z"></path></g><g><path class="cls-1" d="M427.2,73c0,6.12-.38,12.29.18,18.37.39,4.3.36,8.46.09,12.76-.54,8.56-1.11,17.22,1.44,25.63,3.24,10.71,11.3,16.55,22.6,16.64,2.87.03,5.49-.52,8.01-1.8,1.78-.9,2.81-2.53,2.81-4.32,0-2.09-1.96-2.94-3.68-3.51-1.56-.51-3.23-.69-4.86-1-8.32-1.58-12.5-6.24-13.47-14.56-.72-6.18-.66-12.35-.6-18.54.08-10.3-.03-20.61.04-30.91.04-6.26,2.14-8.48,8.32-9.89,3.07-.7,6.1-.25,9.14-.47,2.87-.2,5.3-.92,5.25-4.51-.05-3.43-1.71-5.49-5.19-5.85-2.9-.29-5.8-.4-8.7-.68-5.71-.54-8.71-3.78-8.82-9.57-.08-4.59,0-9.19-.03-13.78-.03-4.89-1.5-6.59-5.48-6.41-3.98.19-6.36,2.73-5.61,7.07.56,3.29.03,6.36-.67,9.37-1.48,6.44-4.86,10.9-11.93,12.82-9,2.45-17.91,1.7-26.82.88-7.63-.7-8.89-2.72-8.92-10.64,0-.97.12-1.98-.05-2.92-2.79-15.51,6.27-26.64,20.52-27.56,2.49-.16,4.81-.72,4.92-3.88.11-3-1.67-4.7-4.36-5.2-11.93-2.24-24.62,2.5-30.16,14.44-3.53,7.6-3.12,15.67-3.29,23.67-.2,9.3-2.54,11.84-11.67,12.34-.84.05-1.71-.12-2.5.08-2.38.6-4.58,1.47-4.64,4.5-.06,2.91,1.42,4.81,4.08,5.59,1.83.54,3.8.75,5.73.85,6.36.33,8.98,2.96,8.99,9.32.03,11,0,22,0,33v32.58c0,1.52.06,3.01.49,4.53.9,3.09,3.13,4.25,6,3.98,2.82-.28,5.06-1.76,5.2-4.96.31-7.07,1.2-14.2.55-21.19-.67-7.31.06-14.57-.33-21.86-.22-4.05,1.23-8.41.35-12.39-1.22-5.51.23-10.77.3-16.13.04-3.98,2.78-6.31,6.66-6.79,9.79-1.24,19.64-1.2,29.45-.67,8.3.45,10.64,3.26,10.64,11.53v.02Z"></path><path class="cls-1" d="M670.35,67.38c-5.17-8.2-12.29-14.19-21.46-17.38-5.31-1.84-11-.88-16.53-1.21-7.84-.47-14.39,2.45-20.33,7.08-8.11,6.32-8.05,6.36-13.69-1.81-1.52-2.19-3.57-3.54-6.42-2.82-2.7.68-3.94,2.33-4.57,5.18-.95,4.22.26,8.27.1,12.39-.16,4.29-.85,8.61-.52,12.85.7,8.83.61,17.69.26,26.46-.29,7.44-.18,14.95,0,22.28.22,8.96-.19,17.94-.05,26.89.11,7.15.89,14.34.4,21.53-.24,3.58,2.3,5.56,5.86,5.28,3.74-.29,5.84-3.07,5.89-8.19.08-8.03.03-16.07.03-24.55.23-2.74-.44-5.95.45-9.11,1.34-4.79,3.59-5.89,8.35-4.37,2.73.87,5.04,2.45,7.15,4.16,11.46,9.32,24.41,7.74,36.29,2.9,19.21-7.84,25.88-25.15,26.9-44.2.61-11.47-1.67-23.16-8.1-33.36h0ZM661.01,120.15c-6.34,11.57-16.2,17.98-29.25,17.71-12.57-.26-22.44-6.51-27.66-18.15-7.13-15.89-7.48-31.84,2.23-47.05,8.8-13.79,26.55-16.75,39.8-11.4,15.17,6.13,17.62,19.21,19.57,32.7,1.73,9.44-.22,18.02-4.69,26.18h0Z"></path><path class="cls-1" d="M339.6,116.07c2.05-5.82,1.75-11.71,2.14-17.62.9-13.46-2.19-26.04-11.75-35.51-9.13-9.04-20.18-15.66-35.08-13.91-2.55,0-6.14-.57-9.48.09-16.87,3.35-28.46,13.38-34.44,29.31-4.9,13.08-4.39,26.51-.25,39.83,2.55,8.22,6.89,15.02,14.62,19.33,3.27,1.83,6.48,3.77,9.62,5.8,11.21,7.25,23.51,5.9,34.98,2.43,14.67-4.43,24.44-15.04,29.61-29.76l.02.02ZM261.75,112.22c-3.53-16.65-2.86-31.87,10.18-44.31,9.94-9.48,21.83-11.32,34.67-7.07,15.69,5.2,21.92,17.92,23.54,32.76,1.07,9.85-.54,20.4-6.35,28.69-6.78,9.67-16.41,16.05-29.47,15.78-12.3,1.29-29.86-12.99-32.58-25.86h0Z"></path><path class="cls-1" d="M519.49,148.4c2.68-.17,5.08-.07,7.38-.51,9.54-1.85,17.6-6.01,25.33-12.36,8.36-6.88,11.01-15.83,13.92-25.07,2.25-7.15,1.71-14.6.67-21.85-1.77-12.34-6.9-23.13-17.49-30.32-13.86-9.41-28.52-13.25-45.24-6.97-9.61,3.61-16.87,9.3-22.53,17.44-6.72,9.68-8.86,20.78-8.78,32.26.08,11.29,4.41,20.85,11.57,29.83,9.3,11.67,20.92,17.17,35.16,17.55h0ZM494.7,70.4c13.68-14.96,31.35-15.12,47.82-3.16,5.44,3.94,8.74,9.26,10.67,15.79,2.99,10.16,2.84,20.18-.03,30.2-3.82,13.32-17.8,25.57-30.19,24.22-14.86-.33-24.82-5.44-31.99-15.61-3.41-4.84-4.56-10.71-5.34-16.41-1.78-12.82.03-25.16,9.07-35.04h0Z"></path><path class="cls-1" d="M222.06,133.28c12.41-13.93,14.76-30.8,11.55-48.56-2.19-12.12-10.37-20.51-19.25-28.3-3-2.63-6.3-4.79-10.21-5.24-5.36-.61-10.48-2.23-15.95-2.56-13.27-.82-24.53,3.28-33.49,12.86-3.89,4.16-8.59,7.96-10.2,13.92-1.37,5.06-2.48,10.14-3.49,15.29-2.8,14.2.76,26.82,8.59,38.36,8.42,12.43,20.9,17.98,35.42,19.31,14.7.43,27.38-4.28,37.02-15.09ZM173.45,134.93c-13.61-6.57-18.42-17.76-20.46-31.31-.45-3.01-1.13-5.98-.79-8.37.22-20,16.89-36.97,36.14-36.6,13.78.26,25.95,9.29,30.97,22.16,5.05,12.96,4.12,25.36-1.1,37.79-6.52,15.53-28.98,23.95-44.75,16.34h0Z"></path><path class="cls-1" d="M87.28,135.72c0,1.11.09,2.24-.02,3.33-.28,2.82.45,5.08,3.51,5.69,3.16.62,5.76-.12,7.03-3.55.93-2.5,1.37-5.02,1.38-7.69.03-15.36-1.18-30.73.48-46.07,1.16-10.66,7.69-20.43,18.63-22.86,3.91-.87,7.76-1.94,11.74-2.53,2.86-.43,5.05-1.81,4.98-5.08-.06-2.99-1.03-5.28-4.5-6.01-5.48-1.15-10.47-.07-15.11,2.76-3.18,1.94-6.14,4.25-9.25,6.32-2.91,1.94-5.16,1.31-6.65-1.88-.77-1.64-1.64-3.17-2.96-4.49-2.17-2.19-4.67-2.36-7.32-1.47-2.65.89-3,3.32-2.57,5.53,1.16,6.1.08,12.13-.08,18.2-.31,12.04.77,24.07.11,36.13-.43,7.88-.4,15.81.57,23.69h0Z"></path></g></svg> 